<?xml version="1.0" standalone="no"?>
<!DOCTYPE svg PUBLIC "-//W3C//DTD SVG 20010904//EN"
 "http://www.w3.org/TR/2001/REC-SVG-20010904/DTD/svg10.dtd">
<svg version="1.0" xmlns="http://www.w3.org/2000/svg"
 width="1043.000000pt" height="637.000000pt" viewBox="0 0 1043.000000 637.000000"
 preserveAspectRatio="xMidYMid meet">

<g transform="translate(0.000000,637.000000) scale(0.100000,-0.100000)"
fill="#000000" stroke="none">
<path d="M7158 4827 c-104 -40 -188 -74 -187 -77 0 -3 37 -34 81 -70 207 -167
552 -547 573 -632 15 -58 -60 -132 -145 -144 -97 -13 -197 38 -284 145 -135
168 -498 586 -510 589 -13 3 -321 -110 -333 -122 -9 -8 368 -484 564 -712 121
-140 182 -190 278 -226 53 -20 78 -23 215 -23 174 0 256 17 404 80 43 19 83
32 89 28 15 -9 129 -253 170 -364 94 -251 131 -445 125 -654 -5 -160 -16 -194
-94 -271 -71 -71 -257 -185 -275 -167 -4 4 -13 50 -20 101 -7 58 -17 96 -25
99 -13 5 -346 -26 -353 -33 -5 -5 68 -748 78 -789 l7 -30 215 -47 c174 -39
216 -46 224 -35 6 7 143 161 306 343 l296 329 29 135 c27 125 29 150 28 335 0
177 -3 215 -27 331 -15 73 -37 158 -48 190 -11 33 -34 106 -50 164 -135 476
-334 837 -656 1195 -148 164 -431 406 -472 404 -9 0 -100 -33 -203 -72z"/>
<path d="M6155 4445 c-71 -28 -109 -48 -107 -56 5 -20 189 -505 287 -759 166
-426 336 -821 377 -874 14 -18 19 -17 165 22 387 106 735 244 978 387 53 31
110 68 126 83 l30 27 -17 75 c-18 84 -62 188 -87 208 -14 12 -23 6 -73 -43
-68 -69 -194 -153 -307 -205 -177 -81 -519 -180 -557 -160 -25 14 -94 111
-165 235 -107 186 -346 680 -485 1003 -25 56 -47 102 -50 101 -3 -1 -54 -20
-115 -44z"/>
<path d="M5800 4310 c-69 -27 -124 -52 -124 -57 4 -20 80 -294 125 -448 134
-455 278 -884 401 -1190 80 -200 188 -425 204 -425 19 0 294 84 459 140 439
150 757 331 806 458 14 34 3 114 -22 171 l-19 43 -47 -36 c-158 -120 -415
-252 -622 -320 -127 -41 -314 -86 -360 -86 -65 0 -338 722 -631 1668 -22 72
-42 132 -43 131 -1 0 -58 -22 -127 -49z"/>
<path d="M5505 4198 c-55 -21 -114 -45 -131 -52 l-32 -15 68 -333 c189 -931
444 -1927 541 -2120 35 -69 21 -68 199 -16 329 97 710 273 910 422 30 22 99
76 152 119 86 70 97 82 103 118 6 35 -1 149 -9 149 -2 0 -39 -23 -82 -52 -229
-151 -611 -315 -903 -388 -124 -31 -131 -29 -159 55 -167 497 -316 1068 -478
1825 -37 173 -70 318 -73 321 -3 3 -51 -11 -106 -33z"/>
<path d="M1848 3237 c-702 -491 -1273 -895 -1270 -898 8 -7 400 -79 429 -79
14 0 30 32 73 147 l55 148 960 678 c528 373 966 681 973 684 14 6 111 -83 182
-168 l39 -46 -65 -119 c-191 -347 -471 -695 -763 -946 -357 -309 -1179 -918
-2114 -1568 -98 -68 -182 -131 -187 -139 -21 -41 -91 -565 -105 -791 l-6 -95
25 30 c15 17 37 46 49 65 13 19 45 69 72 110 148 224 475 488 915 737 136 77
233 110 466 157 212 43 349 58 599 63 249 5 442 -8 627 -43 193 -36 331 -27
520 36 166 56 286 128 412 249 95 93 153 171 205 282 55 114 72 183 78 320 5
105 3 125 -21 208 -68 239 -219 429 -453 574 l-73 44 56 22 c251 96 351 314
269 588 -15 49 -31 66 -332 347 -173 163 -321 296 -327 295 -6 0 -585 -402
-1288 -892z"/>
<path d="M4981 3999 c-113 -44 -206 -81 -208 -82 -5 -6 187 -1270 199 -1307 6
-19 49 -109 96 -200 93 -183 96 -200 45 -261 -39 -46 -80 -63 -154 -63 -95 0
-129 26 -226 172 -58 88 -93 166 -112 247 -6 28 -38 331 -71 674 -33 344 -61
626 -63 627 -2 2 -498 -184 -504 -190 -1 -1 52 -333 118 -739 86 -535 125
-749 140 -782 43 -90 267 -266 455 -356 108 -51 274 -106 365 -120 39 -6 117
-9 173 -7 91 3 109 6 161 33 69 35 124 100 150 179 25 74 30 223 12 326 -83
457 -347 1922 -347 1926 0 10 -36 -2 -229 -77z"/>
<path d="M8622 3159 c39 -178 59 -293 65 -375 l8 -99 100 -28 c217 -61 433
-97 588 -97 162 0 493 89 736 199 137 62 320 163 304 168 -6 2 -38 -3 -72 -12
-97 -25 -249 -45 -343 -45 -218 0 -724 98 -961 187 -120 44 -320 105 -391 119
-37 6 -39 6 -34 -17z"/>
<path d="M7027 1975 c-75 -94 -273 -236 -379 -271 -34 -11 -45 -19 -41 -30 3
-9 -2 -135 -12 -281 l-19 -266 -181 -88 -182 -88 -6 -53 c-17 -151 -39 -449
-34 -454 3 -4 197 92 432 212 418 215 426 219 434 254 10 40 71 892 71 990 0
66 -17 110 -43 110 -7 0 -25 -16 -40 -35z"/>
</g>
</svg>
